0
SECTION
2
HEADER
9
$INSUNITS
70
4
9
$ACADVER
1
AC1014
9
$HANDSEED
5
FFFF
0
ENDSEC
0
SECTION
2
TABLES
0
TABLE
2
VPORT
5
8
100
AcDbSymbolTable
0
ENDTAB
0
TABLE
2
LTYPE
5
5
100
AcDbSymbolTable
0
LTYPE
5
14
100
AcDbSymbolTableRecord
100
AcDbLinetypeTableRecord
2
BYBLOCK
70
0
0
LTYPE
5
15
100
AcDbSymbolTableRecord
100
AcDbLinetypeTableRecord
2
BYLAYER
70
0
0
ENDTAB
0
TABLE
2
LAYER
5
2
100
AcDbSymbolTable
70
2
0
LAYER
5
50
100
AcDbSymbolTableRecord
100
AcDbLayerTableRecord
2
0
70
0
6
CONTINUOUS
0
ENDTAB
0
TABLE
2
STYLE
5
3
100
AcDbSymbolTable
70
1
0
STYLE
5
11
100
AcDbSymbolTableRecord
100
AcDbTextStyleTableRecord
2
STANDARD
70
0
0
ENDTAB
0
TABLE
2
VIEW
5
6
100
AcDbSymbolTable
70
0
0
ENDTAB
0
TABLE
2
UCS
5
7
100
AcDbSymbolTable
70
0
0
ENDTAB
0
TABLE
2
APPID
5
9
100
AcDbSymbolTable
70
2
0
APPID
5
12
100
AcDbSymbolTableRecord
100
AcDbRegAppTableRecord
2
ACAD
70
0
0
ENDTAB
0
TABLE
2
DIMSTYLE
5
A
100
AcDbSymbolTable
70
1
0
ENDTAB
0
TABLE
2
BLOCK_RECORD
5
1
100
AcDbSymbolTable
70
1
0
BLOCK_RECORD
5
1F
100
AcDbSymbolTableRecord
100
AcDbBlockTableRecord
2
*MODEL_SPACE
0
BLOCK_RECORD
5
1B
100
AcDbSymbolTableRecord
100
AcDbBlockTableRecord
2
*PAPER_SPACE
0
ENDTAB
0
ENDSEC
0
SECTION
2
BLOCKS
0
BLOCK
5
20
100
AcDbEntity
100
AcDbBlockBegin
2
*MODEL_SPACE
0
ENDBLK
5
21
100
AcDbEntity
100
AcDbBlockEnd
0
BLOCK
5
1C
100
AcDbEntity
100
AcDbBlockBegin
2
*PAPER_SPACE
0
ENDBLK
5
1D
100
AcDbEntity
100
AcDbBlockEnd
0
ENDSEC
0
SECTION
2
ENTITIES
0
CIRCLE
5
100
100
AcDbEntity
8
0
100
AcDbCircle
10
-11.633200000000002
20
20.066000000000003
30
0
40
1.4999999999999991
0
CIRCLE
5
101
100
AcDbEntity
8
0
100
AcDbCircle
10
11.633200000000002
20
-20.066000000000003
30
0
40
1.4999999999999991
0
CIRCLE
5
102
100
AcDbEntity
8
0
100
AcDbCircle
10
-17.780000000000001
20
14.859
30
0
40
1.4999999999999991
0
CIRCLE
5
103
100
AcDbEntity
8
0
100
AcDbCircle
10
-21.844000000000001
20
7.9248000000000012
30
0
40
1.4999999999999991
0
CIRCLE
5
104
100
AcDbEntity
8
0
100
AcDbCircle
10
21.844000000000001
20
-7.9248000000000012
30
0
40
1.4999999999999991
0
CIRCLE
5
105
100
AcDbEntity
8
0
100
AcDbCircle
10
17.780000000000001
20
-14.859
30
0
40
1.5000000000000013
0
CIRCLE
5
106
100
AcDbEntity
8
0
100
AcDbCircle
10
16.129000000000001
20
37.719000000000008
30
0
40
1.4999999999999991
0
CIRCLE
5
107
100
AcDbEntity
8
0
100
AcDbCircle
10
16.128999999999994
20
-37.719000000000008
30
0
40
1.4999999999999991
0
CIRCLE
5
108
100
AcDbEntity
8
0
100
AcDbCircle
10
-16.129000000000005
20
-37.719000000000008
30
0
40
1.4999999999999991
0
CIRCLE
5
109
100
AcDbEntity
8
0
100
AcDbCircle
10
37.719000000000001
20
-16.129000000000012
30
0
40
1.4999999999999991
0
CIRCLE
5
110
100
AcDbEntity
8
0
100
AcDbCircle
10
-16.128999999999994
20
37.719000000000008
30
0
40
1.4999999999999991
0
CIRCLE
5
111
100
AcDbEntity
8
0
100
AcDbCircle
10
37.719000000000008
20
16.129000000000001
30
0
40
1.4999999999999991
0
CIRCLE
5
112
100
AcDbEntity
8
0
100
AcDbCircle
10
-37.719000000000008
20
-16.128999999999998
30
0
40
1.4999999999999991
0
CIRCLE
5
113
100
AcDbEntity
8
0
100
AcDbCircle
10
-37.719000000000001
20
16.129000000000012
30
0
40
1.4999999999999991
0
LWPOLYLINE
5
114
100
AcDbEntity
8
0
100
AcDbPolyline
90
16
70
1
43
0.0
10
18.131557646825428
20
-39.907766952966377
42
-0.19891236737965548
10
16.363790693859059
20
-40.640000000000001
10
-16.363790693859094
20
-40.639999999999986
42
-0.19891236737965617
10
-18.131557646825456
20
-39.907766952966348
10
-39.907766952966369
20
-18.131557646825442
42
-0.19891236737965706
10
-40.640000000000001
20
-16.363790693859066
10
-40.639999999999986
20
16.36379069385908
42
-0.19891236737965695
10
-39.907766952966355
20
18.131557646825449
10
-18.131557646825446
20
39.907766952966369
42
-0.1989123673796564
10
-16.363790693859062
20
40.640000000000001
10
16.363790693859087
20
40.640000000000001
42
-0.19891236737965559
10
18.131557646825453
20
39.907766952966377
10
39.907766952966369
20
18.131557646825456
42
-0.1989123673796557
10
40.640000000000001
20
16.363790693859087
10
40.639999999999986
20
-16.363790693859109
42
-0.19891236737965559
10
39.907766952966355
20
-18.131557646825478
0
ENDSEC
0
SECTION
2
OBJECTS
0
DICTIONARY
5
C
100
AcDbDictionary
3
ACAD_GROUP
350
D
3
ACAD_MLINESTYLE
350
17
0
DICTIONARY
5
D
100
AcDbDictionary
0
DICTIONARY
5
1A
330
C
100
AcDbDictionary
0
DICTIONARY
5
17
100
AcDbDictionary
0
ENDSEC
0
EOF
